<?xml version="1.0" encoding="utf-8"?>
<!-- Generator: Adobe Illustrator 25.3.1, SVG Export Plug-In . SVG Version: 6.00 Build 0)  -->
<svg version="1.1" xmlns="http://www.w3.org/2000/svg" xmlns:xlink="http://www.w3.org/1999/xlink" x="0px" y="0px"
	 viewBox="0 0 64.2 314" style="enable-background:new 0 0 64.2 314;" xml:space="preserve">
<style type="text/css">
	.st0{filter:url(#Adobe_OpacityMaskFilter);}
	.st1{fill:url(#SVGID_2_);}
	.st2{mask:url(#SVGID_1_);}
	.st3{fill:#CD2D4E;}
	.st4{fill:#5D8442;}
	.st5{fill:#FFFFFF;}
	.st6{fill:#FFCA4B;}
	.st7{fill:#262833;}
</style>
<g id="Layer_1">
	<defs>
		<filter id="Adobe_OpacityMaskFilter" filterUnits="userSpaceOnUse" x="0" y="0" width="64.2" height="314">
			<feColorMatrix  type="matrix" values="1 0 0 0 0  0 1 0 0 0  0 0 1 0 0  0 0 0 1 0"/>
		</filter>
	</defs>
	<mask maskUnits="userSpaceOnUse" x="0" y="0" width="64.2" height="314" id="SVGID_1_">
		<g class="st0">
			
				<linearGradient id="SVGID_2_" gradientUnits="userSpaceOnUse" x1="-235.7886" y1="197.2131" x2="-235.7886" y2="330.0472" gradientTransform="matrix(-1 0 0 -1 -203.6686 334.4186)">
				<stop  offset="7.216534e-02" style="stop-color:#FFFFFF"/>
				<stop  offset="0.1459" style="stop-color:#FFFFFF"/>
				<stop  offset="0.5936" style="stop-color:#FFFFFF"/>
				<stop  offset="1" style="stop-color:#FFFFFF;stop-opacity:0"/>
			</linearGradient>
			<polygon class="st1" points="0,0 64.2,0 64.2,314 0,314 			"/>
		</g>
	</mask>
	<g class="st2">
		<rect x="0" class="st3" width="64.2" height="314"/>
		<polygon class="st4" points="25.2,208.5 32.1,201.6 32.1,215.4 		"/>
		<polygon class="st4" points="25.2,194.8 32.1,187.9 32.1,201.6 		"/>
		<polygon class="st4" points="18.3,201.6 25.2,194.8 25.2,208.5 		"/>
		<polygon class="st5" points="32.1,215.4 25.2,222.3 25.2,208.5 		"/>
		<polygon class="st5" points="25.2,208.5 18.3,215.4 18.3,201.6 		"/>
		<polygon class="st5" points="18.3,201.6 11.4,208.5 11.4,194.7 		"/>
		<polygon class="st5" points="25.2,194.8 18.3,201.6 18.3,187.9 		"/>
		<polygon class="st6" points="32.1,201.6 25.2,208.5 25.2,194.8 		"/>
		<polygon class="st5" points="32.1,242.9 25.2,249.8 25.2,236 		"/>
		<polygon class="st5" points="25.2,236 32.1,229.1 32.1,242.9 		"/>
		<polygon class="st7" points="32.1,229.2 25.2,236 25.2,222.3 		"/>
		<polygon class="st7" points="25.2,222.3 32.1,215.4 32.1,229.2 		"/>
		<polygon class="st5" points="32.1,187.9 25.2,181 25.2,194.8 		"/>
		<polygon class="st5" points="32.1,160.4 25.2,153.5 25.2,167.2 		"/>
		<polygon class="st5" points="25.2,167.2 32.1,174.1 32.1,160.4 		"/>
		<polygon class="st7" points="32.1,174.1 25.2,167.2 25.2,181 		"/>
		<polygon class="st7" points="25.2,181 32.1,187.9 32.1,174.1 		"/>
		<polygon class="st4" points="39,194.8 32.1,201.6 32.1,187.9 		"/>
		<polygon class="st4" points="39,208.5 32.1,215.4 32.1,201.6 		"/>
		<polygon class="st4" points="45.9,201.6 39,208.5 39,194.8 		"/>
		<polygon class="st5" points="32.1,187.9 39,181 39,194.8 		"/>
		<polygon class="st5" points="39,194.8 45.9,187.9 45.9,201.6 		"/>
		<polygon class="st5" points="45.9,201.7 52.8,194.8 52.8,208.5 		"/>
		<polygon class="st5" points="39,208.5 45.9,201.6 45.9,215.4 		"/>
		<polygon class="st6" points="32.1,201.6 39,194.8 39,208.5 		"/>
		<polygon class="st5" points="32.1,160.4 39,153.5 39,167.2 		"/>
		<polygon class="st5" points="39,167.2 32.1,174.1 32.1,160.4 		"/>
		<polygon class="st7" points="32.1,174.1 39,167.2 39,181 		"/>
		<polygon class="st7" points="39,181 32.1,187.9 32.1,174.1 		"/>
		<polygon class="st5" points="32.1,215.4 39,222.3 39,208.5 		"/>
		<polygon class="st5" points="32.1,242.9 39,249.8 39,236 		"/>
		<polygon class="st5" points="39,236 32.1,229.1 32.1,242.9 		"/>
		<polygon class="st7" points="32.1,229.2 39,236 39,222.3 		"/>
		<polygon class="st7" points="39,222.3 32.1,215.4 32.1,229.2 		"/>
		<polygon class="st4" points="25.2,77.7 32.1,70.8 32.1,84.6 		"/>
		<polygon class="st4" points="25.2,63.9 32.1,57 32.1,70.8 		"/>
		<polygon class="st4" points="18.3,70.8 25.2,63.9 25.2,77.7 		"/>
		<polygon class="st5" points="32.1,84.6 25.2,91.5 25.2,77.7 		"/>
		<polygon class="st5" points="25.2,77.7 18.3,84.6 18.3,70.8 		"/>
		<polygon class="st5" points="18.3,70.8 11.4,77.7 11.4,63.9 		"/>
		<polygon class="st5" points="25.2,63.9 18.3,70.8 18.3,57 		"/>
		<polygon class="st6" points="32.1,70.8 25.2,77.7 25.2,63.9 		"/>
		<polygon class="st5" points="32.1,112.1 25.2,119 25.2,105.2 		"/>
		<polygon class="st5" points="25.2,105.2 32.1,98.3 32.1,112.1 		"/>
		<polygon class="st7" points="32.1,98.4 25.2,105.2 25.2,91.5 		"/>
		<polygon class="st7" points="25.2,91.5 32.1,84.6 32.1,98.4 		"/>
		<polygon class="st5" points="32.1,57 25.2,50.2 25.2,63.9 		"/>
		<polygon class="st5" points="32.1,29.5 25.2,22.7 25.2,36.4 		"/>
		<polygon class="st5" points="25.2,36.4 32.1,43.3 32.1,29.5 		"/>
		<polygon class="st7" points="32.1,43.3 25.2,36.4 25.2,50.2 		"/>
		<polygon class="st7" points="25.2,50.2 32.1,57 32.1,43.3 		"/>
		<polygon class="st4" points="39,63.9 32.1,70.8 32.1,57 		"/>
		<polygon class="st4" points="39,77.7 32.1,84.6 32.1,70.8 		"/>
		<polygon class="st4" points="45.9,70.8 39,77.7 39,63.9 		"/>
		<polygon class="st5" points="32.1,57 39,50.2 39,63.9 		"/>
		<polygon class="st5" points="39,63.9 45.9,57 45.9,70.8 		"/>
		<polygon class="st5" points="45.9,70.9 52.8,64 52.8,77.7 		"/>
		<polygon class="st5" points="39,77.7 45.9,70.8 45.9,84.6 		"/>
		<polygon class="st6" points="32.1,70.8 39,63.9 39,77.7 		"/>
		<polygon class="st5" points="32.1,29.5 39,22.7 39,36.4 		"/>
		<polygon class="st5" points="39,36.4 32.1,43.3 32.1,29.5 		"/>
		<polygon class="st7" points="32.1,43.3 39,36.4 39,50.2 		"/>
		<polygon class="st7" points="39,50.2 32.1,57 32.1,43.3 		"/>
		<polygon class="st5" points="32.1,84.6 39,91.5 39,77.7 		"/>
		<polygon class="st5" points="32.1,112.1 39,119 39,105.2 		"/>
		<polygon class="st5" points="39,105.2 32.1,98.3 32.1,112.1 		"/>
		<polygon class="st7" points="32.1,98.4 39,105.2 39,91.5 		"/>
		<polygon class="st7" points="39,91.5 32.1,84.6 32.1,98.4 		"/>
	</g>
</g>
<g id="Layer_2">
</g>
</svg>
