<svg id="Layer_1" data-name="Layer 1" xmlns="http://www.w3.org/2000/svg" viewBox="0 0 305.69 165.22"><defs><style>.cls-1{fill:#5d8442;}.cls-2{fill:#cd2d4e;}.cls-3{fill:#ffca4b;}</style></defs><polygon class="cls-1" points="153.02 75.1 145.4 67.59 160.64 67.59 153.02 75.1"/><polygon class="cls-1" points="153.02 0 145.4 7.51 160.64 7.51 153.02 0"/><polygon class="cls-1" points="153.02 45.06 145.4 52.57 160.64 52.57 153.02 45.06"/><polygon class="cls-2" points="153.02 30.04 145.4 37.55 160.64 37.55 153.02 30.04"/><polygon class="cls-1" points="160.61 7.51 152.99 15.02 168.23 15.02 160.61 7.51"/><polygon class="cls-1" points="160.61 37.55 152.99 45.06 168.23 45.06 160.61 37.55"/><polygon class="cls-1" points="145.21 7.51 137.59 15.02 152.84 15.02 145.21 7.51"/><polygon class="cls-1" points="137.59 15.02 129.97 22.53 145.22 22.53 137.59 15.02"/><polygon class="cls-1" points="129.84 22.53 122.22 30.04 137.46 30.04 129.84 22.53"/><polygon class="cls-1" points="122.22 30.04 114.6 37.55 129.84 37.55 122.22 30.04"/><polygon class="cls-1" points="122.22 45.06 129.84 37.55 114.6 37.55 122.22 45.06"/><polygon class="cls-1" points="168.15 15.02 175.77 22.53 160.52 22.53 168.15 15.02"/><polygon class="cls-1" points="175.9 22.53 183.52 30.04 168.28 30.04 175.9 22.53"/><polygon class="cls-1" points="183.52 30.04 191.14 37.55 175.9 37.55 183.52 30.04"/><polygon class="cls-1" points="183.52 45.06 175.9 37.55 191.14 37.55 183.52 45.06"/><polygon class="cls-2" points="153.02 45.06 145.4 37.55 160.64 37.55 153.02 45.06"/><polygon class="cls-1" points="153.02 30.04 145.4 22.53 160.64 22.53 153.02 30.04"/><polygon class="cls-1" points="160.61 67.59 152.99 60.08 168.23 60.08 160.61 67.59"/><polygon class="cls-1" points="160.61 37.55 152.99 30.04 168.23 30.04 160.61 37.55"/><polygon class="cls-1" points="145.4 37.55 137.78 45.06 153.02 45.06 145.4 37.55"/><polygon class="cls-1" points="145.4 37.55 137.78 30.04 153.02 30.04 145.4 37.55"/><polygon class="cls-1" points="145.21 67.59 137.59 60.08 152.84 60.08 145.21 67.59"/><polygon class="cls-1" points="137.59 60.08 129.97 52.57 145.22 52.57 137.59 60.08"/><polygon class="cls-1" points="129.84 52.57 122.22 45.06 137.46 45.06 129.84 52.57"/><polygon class="cls-1" points="168.15 60.08 175.77 52.57 160.52 52.57 168.15 60.08"/><polygon class="cls-1" points="175.9 52.57 183.52 45.06 168.28 45.06 175.9 52.57"/><polygon class="cls-1" points="229.43 75.1 221.81 67.59 237.06 67.59 229.43 75.1"/><polygon class="cls-1" points="229.43 0 221.81 7.51 237.06 7.51 229.43 0"/><polygon class="cls-1" points="229.43 45.06 221.81 52.57 237.06 52.57 229.43 45.06"/><polygon class="cls-2" points="229.43 30.04 221.81 37.55 237.06 37.55 229.43 30.04"/><polygon class="cls-1" points="237.02 7.51 229.4 15.02 244.65 15.02 237.02 7.51"/><polygon class="cls-1" points="237.02 37.55 229.4 45.06 244.65 45.06 237.02 37.55"/><polygon class="cls-1" points="221.63 7.51 214 15.02 229.25 15.02 221.63 7.51"/><polygon class="cls-1" points="214 15.02 206.38 22.53 221.63 22.53 214 15.02"/><polygon class="cls-1" points="206.25 22.53 198.63 30.04 213.87 30.04 206.25 22.53"/><polygon class="cls-1" points="198.63 30.04 191.01 37.55 206.25 37.55 198.63 30.04"/><polygon class="cls-1" points="198.63 45.06 206.25 37.55 191.01 37.55 198.63 45.06"/><polygon class="cls-1" points="244.56 15.02 252.18 22.53 236.94 22.53 244.56 15.02"/><polygon class="cls-1" points="252.31 22.53 259.93 30.04 244.69 30.04 252.31 22.53"/><polygon class="cls-1" points="259.93 30.04 267.55 37.55 252.31 37.55 259.93 30.04"/><polygon class="cls-1" points="259.93 45.06 252.31 37.55 267.55 37.55 259.93 45.06"/><polygon class="cls-2" points="229.43 45.06 221.81 37.55 237.06 37.55 229.43 45.06"/><polygon class="cls-1" points="229.43 30.04 221.81 22.53 237.06 22.53 229.43 30.04"/><polygon class="cls-1" points="237.02 67.59 229.4 60.08 244.65 60.08 237.02 67.59"/><polygon class="cls-1" points="237.02 37.55 229.4 30.04 244.65 30.04 237.02 37.55"/><polygon class="cls-1" points="221.81 37.55 214.19 45.06 229.43 45.06 221.81 37.55"/><polygon class="cls-1" points="221.81 37.55 214.19 30.04 229.43 30.04 221.81 37.55"/><polygon class="cls-1" points="221.63 67.59 214 60.08 229.25 60.08 221.63 67.59"/><polygon class="cls-1" points="214 60.08 206.38 52.57 221.63 52.57 214 60.08"/><polygon class="cls-1" points="206.25 52.57 198.63 45.06 213.87 45.06 206.25 52.57"/><polygon class="cls-1" points="244.56 60.08 252.18 52.57 236.94 52.57 244.56 60.08"/><polygon class="cls-1" points="252.31 52.57 259.93 45.06 244.69 45.06 252.31 52.57"/><polygon class="cls-1" points="76.61 75.1 68.99 67.59 84.23 67.59 76.61 75.1"/><polygon class="cls-1" points="76.61 0 68.99 7.51 84.23 7.51 76.61 0"/><polygon class="cls-1" points="76.61 45.06 68.99 52.57 84.23 52.57 76.61 45.06"/><polygon class="cls-2" points="76.61 30.04 68.99 37.55 84.23 37.55 76.61 30.04"/><polygon class="cls-1" points="84.2 7.51 76.58 15.02 91.82 15.02 84.2 7.51"/><polygon class="cls-1" points="84.2 37.55 76.58 45.06 91.82 45.06 84.2 37.55"/><polygon class="cls-1" points="68.8 7.51 61.18 15.02 76.42 15.02 68.8 7.51"/><polygon class="cls-1" points="61.18 15.02 53.56 22.53 68.8 22.53 61.18 15.02"/><polygon class="cls-1" points="53.43 22.53 45.81 30.04 61.05 30.04 53.43 22.53"/><polygon class="cls-1" points="45.81 30.04 38.19 37.55 53.43 37.55 45.81 30.04"/><polygon class="cls-1" points="45.81 45.06 53.43 37.55 38.19 37.55 45.81 45.06"/><polygon class="cls-1" points="91.73 15.02 99.36 22.53 84.11 22.53 91.73 15.02"/><polygon class="cls-1" points="99.49 22.53 107.11 30.04 91.86 30.04 99.49 22.53"/><polygon class="cls-1" points="107.11 30.04 114.73 37.55 99.49 37.55 107.11 30.04"/><polygon class="cls-1" points="107.11 45.06 99.49 37.55 114.73 37.55 107.11 45.06"/><polygon class="cls-2" points="76.61 45.06 68.99 37.55 84.23 37.55 76.61 45.06"/><polygon class="cls-1" points="76.61 30.04 68.99 22.53 84.23 22.53 76.61 30.04"/><polygon class="cls-1" points="84.2 67.59 76.58 60.08 91.82 60.08 84.2 67.59"/><polygon class="cls-1" points="84.2 37.55 76.58 30.04 91.82 30.04 84.2 37.55"/><polygon class="cls-1" points="68.99 37.55 61.37 45.06 76.61 45.06 68.99 37.55"/><polygon class="cls-1" points="68.99 37.55 61.37 30.04 76.61 30.04 68.99 37.55"/><polygon class="cls-1" points="68.8 67.59 61.18 60.08 76.42 60.08 68.8 67.59"/><polygon class="cls-1" points="61.18 60.08 53.56 52.57 68.8 52.57 61.18 60.08"/><polygon class="cls-1" points="53.43 52.57 45.81 45.06 61.05 45.06 53.43 52.57"/><polygon class="cls-1" points="91.73 60.08 99.36 52.57 84.11 52.57 91.73 60.08"/><polygon class="cls-1" points="99.49 52.57 107.11 45.06 91.86 45.06 99.49 52.57"/><polygon class="cls-1" points="153.02 165.22 145.4 157.71 160.64 157.71 153.02 165.22"/><polygon class="cls-1" points="153.02 90.12 145.4 97.63 160.64 97.63 153.02 90.12"/><polygon class="cls-1" points="153.02 135.18 145.4 142.69 160.64 142.69 153.02 135.18"/><polygon class="cls-2" points="153.02 120.16 145.4 127.67 160.64 127.67 153.02 120.16"/><polygon class="cls-1" points="160.61 97.63 152.99 105.14 168.23 105.14 160.61 97.63"/><polygon class="cls-1" points="160.61 127.67 152.99 135.18 168.23 135.18 160.61 127.67"/><polygon class="cls-1" points="145.21 97.63 137.59 105.14 152.84 105.14 145.21 97.63"/><polygon class="cls-1" points="137.59 105.14 129.97 112.65 145.22 112.65 137.59 105.14"/><polygon class="cls-1" points="129.84 112.65 122.22 120.16 137.46 120.16 129.84 112.65"/><polygon class="cls-1" points="122.22 120.16 114.6 127.67 129.84 127.67 122.22 120.16"/><polygon class="cls-1" points="122.22 135.18 129.84 127.67 114.6 127.67 122.22 135.18"/><polygon class="cls-1" points="168.15 105.14 175.77 112.65 160.52 112.65 168.15 105.14"/><polygon class="cls-1" points="175.9 112.65 183.52 120.16 168.28 120.16 175.9 112.65"/><polygon class="cls-1" points="183.52 120.16 191.14 127.67 175.9 127.67 183.52 120.16"/><polygon class="cls-1" points="183.52 135.18 175.9 127.67 191.14 127.67 183.52 135.18"/><polygon class="cls-2" points="153.02 135.18 145.4 127.67 160.64 127.67 153.02 135.18"/><polygon class="cls-1" points="153.02 120.16 145.4 112.65 160.64 112.65 153.02 120.16"/><polygon class="cls-1" points="160.61 157.71 152.99 150.2 168.23 150.2 160.61 157.71"/><polygon class="cls-1" points="160.61 127.67 152.99 120.16 168.23 120.16 160.61 127.67"/><polygon class="cls-1" points="145.4 127.67 137.78 135.18 153.02 135.18 145.4 127.67"/><polygon class="cls-1" points="145.4 127.67 137.78 120.16 153.02 120.16 145.4 127.67"/><polygon class="cls-1" points="145.21 157.71 137.59 150.2 152.84 150.2 145.21 157.71"/><polygon class="cls-1" points="137.59 150.2 129.97 142.69 145.22 142.69 137.59 150.2"/><polygon class="cls-1" points="129.84 142.69 122.22 135.18 137.46 135.18 129.84 142.69"/><polygon class="cls-1" points="168.15 150.2 175.77 142.69 160.52 142.69 168.15 150.2"/><polygon class="cls-1" points="175.9 142.69 183.52 135.18 168.28 135.18 175.9 142.69"/><polygon class="cls-1" points="229.43 165.22 221.81 157.71 237.06 157.71 229.43 165.22"/><polygon class="cls-1" points="229.43 90.12 221.81 97.63 237.06 97.63 229.43 90.12"/><polygon class="cls-1" points="229.43 135.18 221.81 142.69 237.06 142.69 229.43 135.18"/><polygon class="cls-2" points="229.43 120.16 221.81 127.67 237.06 127.67 229.43 120.16"/><polygon class="cls-1" points="237.02 97.63 229.4 105.14 244.65 105.14 237.02 97.63"/><polygon class="cls-1" points="237.02 127.67 229.4 135.18 244.65 135.18 237.02 127.67"/><polygon class="cls-1" points="221.63 97.63 214 105.14 229.25 105.14 221.63 97.63"/><polygon class="cls-1" points="214 105.14 206.38 112.65 221.63 112.65 214 105.14"/><polygon class="cls-1" points="206.25 112.65 198.63 120.16 213.87 120.16 206.25 112.65"/><polygon class="cls-1" points="198.63 120.16 191.01 127.67 206.25 127.67 198.63 120.16"/><polygon class="cls-1" points="198.63 135.18 206.25 127.67 191.01 127.67 198.63 135.18"/><polygon class="cls-1" points="244.56 105.14 252.18 112.65 236.94 112.65 244.56 105.14"/><polygon class="cls-1" points="252.31 112.65 259.93 120.16 244.69 120.16 252.31 112.65"/><polygon class="cls-1" points="259.93 120.16 267.55 127.67 252.31 127.67 259.93 120.16"/><polygon class="cls-1" points="259.93 135.18 252.31 127.67 267.55 127.67 259.93 135.18"/><polygon class="cls-2" points="229.43 135.18 221.81 127.67 237.06 127.67 229.43 135.18"/><polygon class="cls-1" points="229.43 120.16 221.81 112.65 237.06 112.65 229.43 120.16"/><polygon class="cls-1" points="237.02 157.71 229.4 150.2 244.65 150.2 237.02 157.71"/><polygon class="cls-1" points="237.02 127.67 229.4 120.16 244.65 120.16 237.02 127.67"/><polygon class="cls-1" points="221.81 127.67 214.19 135.18 229.43 135.18 221.81 127.67"/><polygon class="cls-1" points="221.81 127.67 214.19 120.16 229.43 120.16 221.81 127.67"/><polygon class="cls-1" points="221.63 157.71 214 150.2 229.25 150.2 221.63 157.71"/><polygon class="cls-1" points="214 150.2 206.38 142.69 221.63 142.69 214 150.2"/><polygon class="cls-1" points="206.25 142.69 198.63 135.18 213.87 135.18 206.25 142.69"/><polygon class="cls-1" points="244.56 150.2 252.18 142.69 236.94 142.69 244.56 150.2"/><polygon class="cls-1" points="252.31 142.69 259.93 135.18 244.69 135.18 252.31 142.69"/><polygon class="cls-1" points="76.61 165.22 68.99 157.71 84.23 157.71 76.61 165.22"/><polygon class="cls-1" points="76.61 90.12 68.99 97.63 84.23 97.63 76.61 90.12"/><polygon class="cls-1" points="76.61 135.18 68.99 142.69 84.23 142.69 76.61 135.18"/><polygon class="cls-2" points="76.61 120.16 68.99 127.67 84.23 127.67 76.61 120.16"/><polygon class="cls-1" points="84.2 97.63 76.58 105.14 91.82 105.14 84.2 97.63"/><polygon class="cls-1" points="84.2 127.67 76.58 135.18 91.82 135.18 84.2 127.67"/><polygon class="cls-1" points="68.8 97.63 61.18 105.14 76.42 105.14 68.8 97.63"/><polygon class="cls-1" points="61.18 105.14 53.56 112.65 68.8 112.65 61.18 105.14"/><polygon class="cls-1" points="53.43 112.65 45.81 120.16 61.05 120.16 53.43 112.65"/><polygon class="cls-1" points="45.81 120.16 38.19 127.67 53.43 127.67 45.81 120.16"/><polygon class="cls-1" points="45.81 135.18 53.43 127.67 38.19 127.67 45.81 135.18"/><polygon class="cls-1" points="91.73 105.14 99.36 112.65 84.11 112.65 91.73 105.14"/><polygon class="cls-1" points="99.49 112.65 107.11 120.16 91.86 120.16 99.49 112.65"/><polygon class="cls-1" points="107.11 120.16 114.73 127.67 99.49 127.67 107.11 120.16"/><polygon class="cls-1" points="107.11 135.18 99.49 127.67 114.73 127.67 107.11 135.18"/><polygon class="cls-2" points="76.61 135.18 68.99 127.67 84.23 127.67 76.61 135.18"/><polygon class="cls-1" points="76.61 120.16 68.99 112.65 84.23 112.65 76.61 120.16"/><polygon class="cls-1" points="84.2 157.71 76.58 150.2 91.82 150.2 84.2 157.71"/><polygon class="cls-1" points="84.2 127.67 76.58 120.16 91.82 120.16 84.2 127.67"/><polygon class="cls-1" points="68.99 127.67 61.37 135.18 76.61 135.18 68.99 127.67"/><polygon class="cls-1" points="68.99 127.67 61.37 120.16 76.61 120.16 68.99 127.67"/><polygon class="cls-1" points="68.8 157.71 61.18 150.2 76.42 150.2 68.8 157.71"/><polygon class="cls-1" points="61.18 150.2 53.56 142.69 68.8 142.69 61.18 150.2"/><polygon class="cls-1" points="53.43 142.69 45.81 135.18 61.05 135.18 53.43 142.69"/><polygon class="cls-1" points="91.73 150.2 99.36 142.69 84.11 142.69 91.73 150.2"/><polygon class="cls-1" points="99.49 142.69 107.11 135.18 91.86 135.18 99.49 142.69"/><polygon class="cls-3" points="7.62 82.61 0 90.12 15.24 90.12 7.62 82.61"/><polygon class="cls-3" points="7.67 82.61 0.05 75.1 15.29 75.1 7.67 82.61"/><polygon class="cls-2" points="22.91 82.61 15.29 90.12 30.53 90.12 22.91 82.61"/><polygon class="cls-2" points="22.96 82.61 15.33 75.1 30.58 75.1 22.96 82.61"/><polygon class="cls-3" points="38.15 82.61 30.53 90.12 45.77 90.12 38.15 82.61"/><polygon class="cls-3" points="38.2 82.61 30.58 75.1 45.82 75.1 38.2 82.61"/><polygon class="cls-2" points="53.44 82.61 45.82 90.12 61.06 90.12 53.44 82.61"/><polygon class="cls-2" points="53.49 82.61 45.87 75.1 61.11 75.1 53.49 82.61"/><polygon class="cls-3" points="68.79 82.61 61.17 90.12 76.41 90.12 68.79 82.61"/><polygon class="cls-3" points="68.84 82.61 61.21 75.1 76.46 75.1 68.84 82.61"/><polygon class="cls-3" points="15.28 75.1 7.66 67.59 22.9 67.59 15.28 75.1"/><polygon class="cls-2" points="30.57 75.1 22.95 67.59 38.19 67.59 30.57 75.1"/><polygon class="cls-2" points="45.81 75.1 38.19 67.59 53.44 67.59 45.81 75.1"/><polygon class="cls-3" points="61.1 75.1 53.48 67.59 68.72 67.59 61.1 75.1"/><polygon class="cls-3" points="22.96 67.59 15.33 60.08 30.58 60.08 22.96 67.59"/><polygon class="cls-2" points="38.24 67.59 30.62 60.08 45.87 60.08 38.24 67.59"/><polygon class="cls-3" points="53.49 67.59 45.87 60.08 61.11 60.08 53.49 67.59"/><polygon class="cls-3" points="30.55 60.08 22.93 52.57 38.17 52.57 30.55 60.08"/><polygon class="cls-3" points="45.84 60.08 38.22 52.57 53.46 52.57 45.84 60.08"/><polygon class="cls-3" points="38.22 52.57 30.59 45.06 45.84 45.06 38.22 52.57"/><polygon class="cls-3" points="61.16 90.12 68.78 97.63 53.53 97.63 61.16 90.12"/><polygon class="cls-2" points="45.87 90.12 53.49 97.63 38.24 97.63 45.87 90.12"/><polygon class="cls-2" points="30.62 90.12 38.24 97.63 23 97.63 30.62 90.12"/><polygon class="cls-3" points="15.33 90.12 22.96 97.63 7.71 97.63 15.33 90.12"/><polygon class="cls-3" points="53.48 97.63 61.1 105.14 45.86 105.14 53.48 97.63"/><polygon class="cls-2" points="38.19 97.63 45.81 105.14 30.57 105.14 38.19 97.63"/><polygon class="cls-3" points="22.95 97.63 30.57 105.14 15.33 105.14 22.95 97.63"/><polygon class="cls-3" points="45.89 105.14 53.51 112.65 38.27 112.65 45.89 105.14"/><polygon class="cls-3" points="30.6 105.14 38.22 112.65 22.98 112.65 30.6 105.14"/><polygon class="cls-3" points="38.22 112.65 45.84 120.16 30.6 120.16 38.22 112.65"/><polygon class="cls-3" points="236.86 82.61 229.24 90.12 244.48 90.12 236.86 82.61"/><polygon class="cls-3" points="236.9 82.61 229.28 75.1 244.53 75.1 236.9 82.61"/><polygon class="cls-2" points="252.15 82.61 244.53 90.12 259.77 90.12 252.15 82.61"/><polygon class="cls-2" points="252.19 82.61 244.57 75.1 259.81 75.1 252.19 82.61"/><polygon class="cls-3" points="267.39 82.61 259.77 90.12 275.01 90.12 267.39 82.61"/><polygon class="cls-3" points="267.44 82.61 259.81 75.1 275.06 75.1 267.44 82.61"/><polygon class="cls-2" points="282.68 82.61 275.06 90.12 290.3 90.12 282.68 82.61"/><polygon class="cls-2" points="282.72 82.61 275.1 75.1 290.35 75.1 282.72 82.61"/><polygon class="cls-3" points="298.03 82.61 290.4 90.12 305.65 90.12 298.03 82.61"/><polygon class="cls-3" points="298.07 82.61 290.45 75.1 305.69 75.1 298.07 82.61"/><polygon class="cls-3" points="244.52 75.1 236.9 67.59 252.14 67.59 244.52 75.1"/><polygon class="cls-2" points="259.81 75.1 252.19 67.59 267.43 67.59 259.81 75.1"/><polygon class="cls-2" points="275.05 75.1 267.43 67.59 282.67 67.59 275.05 75.1"/><polygon class="cls-3" points="290.34 75.1 282.72 67.59 297.96 67.59 290.34 75.1"/><polygon class="cls-3" points="252.19 67.59 244.57 60.08 259.81 60.08 252.19 67.59"/><polygon class="cls-2" points="267.48 67.59 259.86 60.08 275.1 60.08 267.48 67.59"/><polygon class="cls-3" points="282.72 67.59 275.1 60.08 290.35 60.08 282.72 67.59"/><polygon class="cls-3" points="259.78 60.08 252.16 52.57 267.4 52.57 259.78 60.08"/><polygon class="cls-3" points="275.07 60.08 267.45 52.57 282.69 52.57 275.07 60.08"/><polygon class="cls-3" points="267.45 52.57 259.83 45.06 275.07 45.06 267.45 52.57"/><polygon class="cls-3" points="290.39 90.12 298.01 97.63 282.77 97.63 290.39 90.12"/><polygon class="cls-2" points="275.1 90.12 282.72 97.63 267.48 97.63 275.1 90.12"/><polygon class="cls-2" points="259.86 90.12 267.48 97.63 252.24 97.63 259.86 90.12"/><polygon class="cls-3" points="244.57 90.12 252.19 97.63 236.95 97.63 244.57 90.12"/><polygon class="cls-3" points="282.72 97.63 290.34 105.14 275.1 105.14 282.72 97.63"/><polygon class="cls-2" points="267.43 97.63 275.05 105.14 259.81 105.14 267.43 97.63"/><polygon class="cls-3" points="252.19 97.63 259.81 105.14 244.56 105.14 252.19 97.63"/><polygon class="cls-3" points="275.13 105.14 282.75 112.65 267.5 112.65 275.13 105.14"/><polygon class="cls-3" points="259.84 105.14 267.46 112.65 252.22 112.65 259.84 105.14"/><polygon class="cls-3" points="267.46 112.65 275.08 120.16 259.84 120.16 267.46 112.65"/><polygon class="cls-3" points="84.03 82.61 76.41 90.12 91.66 90.12 84.03 82.61"/><polygon class="cls-3" points="84.08 82.61 76.46 75.1 91.7 75.1 84.08 82.61"/><polygon class="cls-2" points="99.32 82.61 91.7 90.12 106.94 90.12 99.32 82.61"/><polygon class="cls-2" points="99.37 82.61 91.75 75.1 106.99 75.1 99.37 82.61"/><polygon class="cls-3" points="114.56 82.61 106.94 90.12 122.19 90.12 114.56 82.61"/><polygon class="cls-3" points="114.61 82.61 106.99 75.1 122.23 75.1 114.61 82.61"/><polygon class="cls-2" points="129.85 82.61 122.23 90.12 137.48 90.12 129.85 82.61"/><polygon class="cls-2" points="129.9 82.61 122.28 75.1 137.52 75.1 129.9 82.61"/><polygon class="cls-3" points="145.2 82.61 137.58 90.12 152.82 90.12 145.2 82.61"/><polygon class="cls-3" points="145.25 82.61 137.63 75.1 152.87 75.1 145.25 82.61"/><polygon class="cls-3" points="91.69 75.1 84.07 67.59 99.31 67.59 91.69 75.1"/><polygon class="cls-2" points="106.98 75.1 99.36 67.59 114.6 67.59 106.98 75.1"/><polygon class="cls-2" points="122.23 75.1 114.6 67.59 129.85 67.59 122.23 75.1"/><polygon class="cls-3" points="137.51 75.1 129.89 67.59 145.14 67.59 137.51 75.1"/><polygon class="cls-3" points="99.37 67.59 91.75 60.08 106.99 60.08 99.37 67.59"/><polygon class="cls-2" points="114.66 67.59 107.03 60.08 122.28 60.08 114.66 67.59"/><polygon class="cls-3" points="129.9 67.59 122.28 60.08 137.52 60.08 129.9 67.59"/><polygon class="cls-3" points="106.96 60.08 99.34 52.57 114.58 52.57 106.96 60.08"/><polygon class="cls-3" points="122.25 60.08 114.63 52.57 129.87 52.57 122.25 60.08"/><polygon class="cls-3" points="114.63 52.57 107.01 45.06 122.25 45.06 114.63 52.57"/><polygon class="cls-3" points="137.57 90.12 145.19 97.63 129.95 97.63 137.57 90.12"/><polygon class="cls-2" points="122.28 90.12 129.9 97.63 114.66 97.63 122.28 90.12"/><polygon class="cls-2" points="107.03 90.12 114.66 97.63 99.41 97.63 107.03 90.12"/><polygon class="cls-3" points="91.75 90.12 99.37 97.63 84.13 97.63 91.75 90.12"/><polygon class="cls-3" points="129.89 97.63 137.51 105.14 122.27 105.14 129.89 97.63"/><polygon class="cls-2" points="114.6 97.63 122.23 105.14 106.98 105.14 114.6 97.63"/><polygon class="cls-3" points="99.36 97.63 106.98 105.14 91.74 105.14 99.36 97.63"/><polygon class="cls-3" points="122.3 105.14 129.92 112.65 114.68 112.65 122.3 105.14"/><polygon class="cls-3" points="107.01 105.14 114.63 112.65 99.39 112.65 107.01 105.14"/><polygon class="cls-3" points="114.63 112.65 122.25 120.16 107.01 120.16 114.63 112.65"/><polygon class="cls-3" points="160.44 82.61 152.82 90.12 168.07 90.12 160.44 82.61"/><polygon class="cls-3" points="160.49 82.61 152.87 75.1 168.11 75.1 160.49 82.61"/><polygon class="cls-2" points="175.73 82.61 168.11 90.12 183.36 90.12 175.73 82.61"/><polygon class="cls-2" points="175.78 82.61 168.16 75.1 183.4 75.1 175.78 82.61"/><polygon class="cls-3" points="190.98 82.61 183.36 90.12 198.6 90.12 190.98 82.61"/><polygon class="cls-3" points="191.02 82.61 183.4 75.1 198.65 75.1 191.02 82.61"/><polygon class="cls-2" points="206.27 82.61 198.65 90.12 213.89 90.12 206.27 82.61"/><polygon class="cls-2" points="206.31 82.61 198.69 75.1 213.93 75.1 206.31 82.61"/><polygon class="cls-3" points="221.61 82.61 213.99 90.12 229.24 90.12 221.61 82.61"/><polygon class="cls-3" points="221.66 82.61 214.04 75.1 229.28 75.1 221.66 82.61"/><polygon class="cls-3" points="168.11 75.1 160.48 67.59 175.73 67.59 168.11 75.1"/><polygon class="cls-2" points="183.4 75.1 175.77 67.59 191.02 67.59 183.4 75.1"/><polygon class="cls-2" points="198.64 75.1 191.02 67.59 206.26 67.59 198.64 75.1"/><polygon class="cls-3" points="213.93 75.1 206.31 67.59 221.55 67.59 213.93 75.1"/><polygon class="cls-3" points="175.78 67.59 168.16 60.08 183.4 60.08 175.78 67.59"/><polygon class="cls-2" points="191.07 67.59 183.45 60.08 198.69 60.08 191.07 67.59"/><polygon class="cls-3" points="206.31 67.59 198.69 60.08 213.93 60.08 206.31 67.59"/><polygon class="cls-3" points="183.37 60.08 175.75 52.57 190.99 52.57 183.37 60.08"/><polygon class="cls-3" points="198.66 60.08 191.04 52.57 206.28 52.57 198.66 60.08"/><polygon class="cls-3" points="191.04 52.57 183.42 45.06 198.66 45.06 191.04 52.57"/><polygon class="cls-3" points="213.98 90.12 221.6 97.63 206.36 97.63 213.98 90.12"/><polygon class="cls-2" points="198.69 90.12 206.31 97.63 191.07 97.63 198.69 90.12"/><polygon class="cls-2" points="183.45 90.12 191.07 97.63 175.83 97.63 183.45 90.12"/><polygon class="cls-3" points="168.16 90.12 175.78 97.63 160.54 97.63 168.16 90.12"/><polygon class="cls-3" points="206.31 97.63 213.93 105.14 198.68 105.14 206.31 97.63"/><polygon class="cls-2" points="191.02 97.63 198.64 105.14 183.4 105.14 191.02 97.63"/><polygon class="cls-3" points="175.77 97.63 183.4 105.14 168.15 105.14 175.77 97.63"/><polygon class="cls-3" points="198.71 105.14 206.34 112.65 191.09 112.65 198.71 105.14"/><polygon class="cls-3" points="183.42 105.14 191.05 112.65 175.8 112.65 183.42 105.14"/><polygon class="cls-3" points="191.05 112.65 198.67 120.16 183.42 120.16 191.05 112.65"/></svg>